<?xml version="1.0" encoding="UTF-8" standalone="no"?>
<svg
   width="8"
   height="8"
   viewBox="0 0 8 8"
   version="1.1"
   id="svg4"
   sodipodi:docname="icon.svg"
   inkscape:version="1.1.2 (0a00cf5339, 2022-02-04, custom)"
   xmlns:inkscape="http://www.inkscape.org/namespaces/inkscape"
   xmlns:sodipodi="http://sodipodi.sourceforge.net/DTD/sodipodi-0.dtd"
   xmlns="http://www.w3.org/2000/svg"
   xmlns:svg="http://www.w3.org/2000/svg">
  <defs
     id="defs8" />
  <sodipodi:namedview
     id="namedview6"
     pagecolor="#ffffff"
     bordercolor="#666666"
     borderopacity="1.0"
     inkscape:pageshadow="2"
     inkscape:pageopacity="0.0"
     inkscape:pagecheckerboard="0"
     showgrid="false"
     inkscape:zoom="60.125"
     inkscape:cx="0.72349272"
     inkscape:cy="4"
     inkscape:window-width="1280"
     inkscape:window-height="668"
     inkscape:window-x="-6"
     inkscape:window-y="-6"
     inkscape:window-maximized="1"
     inkscape:current-layer="svg4" />
  <path
     d="M4 0l-.19.09-3.5 1.47-.31.13v.31c0 1.66.67 3.12 1.47 4.19.4.53.83.97 1.25 1.28.42.31.83.53 1.28.53.46 0 .86-.22 1.28-.53.42-.31.85-.75 1.25-1.28.8-1.07 1.47-2.53 1.47-4.19v-.31l-.31-.13-3.5-1.47-.19-.09zm0 1.09v5.91c-.04 0-.33-.07-.66-.31s-.71-.63-1.06-1.09c-.64-.85-1.14-2.03-1.22-3.28l2.94-1.22z"
     id="path2"
     style="fill:#1793d1;fill-opacity:1" />
</svg>
